<?xml version="1.0" encoding="utf-8"?>
<!-- Generator: Adobe Illustrator 19.0.0, SVG Export Plug-In . SVG Version: 6.00 Build 0)  -->
<svg version="1.1" id="Layer_1" xmlns="http://www.w3.org/2000/svg" xmlns:xlink="http://www.w3.org/1999/xlink" x="0px" y="0px"
	 viewBox="0 0 612 321.1" style="enable-background:new 0 0 612 321.1;" xml:space="preserve">
<style type="text/css">
	.st0{fill:url(#XMLID_2_);}
	.st1{fill:url(#XMLID_3_);}
	.st2{fill:#5EC6CB;}
	.st3{fill:#72849E;}
</style>
<g id="XMLID_383_">
	<linearGradient id="XMLID_2_" gradientUnits="userSpaceOnUse" x1="51.6265" y1="162.2245" x2="335.712" y2="162.2245">
		<stop  offset="0" style="stop-color:#488FCD"/>
		<stop  offset="1" style="stop-color:#4CC3CC"/>
	</linearGradient>
	<path id="XMLID_434_" class="st0" d="M286.4,234.2c-0.7,1.1-1.7,1.7-2.9,2c-1.2,0.3-2.3,0-3.2-0.7L173,167.2l-64.3,40.7
		c-2.4,1.6-4.5,1.1-6-1.3c-0.3-0.7-0.5-1.4-0.5-2.1c0-1.6,0.6-2.8,1.8-3.7l66.7-42.3c1.4-1.2,2.9-1.2,4.5,0l109.8,69.8
		c1.4,0.9,2.1,2.1,2.1,3.7C287,232.8,286.8,233.5,286.4,234.2z M178.8,190.6L58.2,267.2c-1.1,0.7-2.1,0.9-3.3,0.5
		c-1.1-0.3-2.1-1-2.8-1.8c-0.3-1.1-0.5-1.8-0.5-2.4c0-1.6,0.6-2.8,1.8-3.7l120.6-76.6c2.5-1.2,4.5-0.8,6,1.3
		c0.5,0.7,0.8,1.5,0.8,2.4C180.9,188.5,180.2,189.7,178.8,190.6z M274.9,196.9c0,0.7-0.3,1.5-0.8,2.4c-0.7,0.9-1.6,1.5-2.8,1.8
		c-1.1,0.4-2.2,0.2-3.3-0.5l-32.6-20.7c-1.2-1.1-1.8-2.3-1.8-3.7c0-1.1,0.2-1.8,0.5-2.4c1.6-2.4,3.6-2.9,6-1.3l32.6,20.7
		C274.2,194.1,274.9,195.3,274.9,196.9z M218.4,165.9c-1.4,0.9-3,0.9-4.7,0L104,96.1c-1.2-0.9-1.8-2.1-1.8-3.7
		c0-0.5,0.2-1.3,0.5-2.4c0.7-0.9,1.6-1.5,2.8-1.8c1.1-0.3,2.2-0.2,3.3,0.5l107.4,68.5l51.7-32.8c2.5-1.6,4.5-1.1,6,1.3
		c0.4,0.7,0.5,1.4,0.5,2.1c0,1.8-0.6,3-1.8,3.7L218.4,165.9z M154.9,150.7c-0.7,0.9-1.6,1.5-2.8,1.8c-1.1,0.4-2.2,0.2-3.3-0.5
		l-32.3-20.7c-1.4-0.9-2.1-2.1-2.1-3.7c0-0.9,0.3-1.6,0.8-2.1c1.6-2.4,3.6-2.9,6-1.3l32.3,20.5c1.2,0.7,1.8,1.9,1.8,3.7
		C155.4,149.4,155.3,150.1,154.9,150.7z M329.1,57.3c0.9-0.7,1.9-0.9,3.2-0.7c1.2,0.3,2.2,0.9,2.9,2c0.3,0.7,0.5,1.5,0.5,2.4
		c0,1.4-0.7,2.6-2.1,3.7L215,140.9c-2.4,1.6-4.5,1.1-6-1.3c-0.5-0.9-0.8-1.7-0.8-2.4c0-1.6,0.7-2.8,2.1-3.7L329.1,57.3z
		 M104.8,124.4c-2.1-0.5-3.2-2-3.2-4.5c0-0.7,0.1-1.2,0.3-1.6c0.4-1.2,1.1-2.1,2.2-2.6c1.1-0.5,2.4-0.6,3.8-0.3
		c2.1,0.7,3.2,2.2,3.2,4.5c-0.5,1.9-1.4,3.2-2.5,3.9c-1.1,0.7-2.3,0.9-3.5,0.5H104.8z"/>
	<linearGradient id="XMLID_3_" gradientUnits="userSpaceOnUse" x1="50.9189" y1="162.2247" x2="336.4198" y2="162.2247">
		<stop  offset="0" style="stop-color:#488FCD"/>
		<stop  offset="1" style="stop-color:#4CC3CC"/>
	</linearGradient>
	<path id="XMLID_384_" class="st1" d="M336.4,61c0,1.6-0.8,3.1-2.4,4.2l-118.6,76.3c-1.4,0.9-2.7,1.2-3.9,0.9
		c-1.2-0.3-2.2-1.1-3.1-2.5c-0.6-1-0.9-1.9-0.9-2.7c0-1.8,0.8-3.3,2.4-4.3l118.8-76.3c1-0.8,2.3-1.1,3.7-0.8
		c1.4,0.3,2.5,1.1,3.3,2.3C336.2,59.1,336.4,60,336.4,61z M208.9,137.3c0,0.6,0.2,1.2,0.7,2c0.7,1,1.4,1.7,2.2,1.8
		c0.8,0.2,1.8-0.1,2.8-0.8l118.6-76.3c1.2-0.9,1.8-1.9,1.8-3.1c0-0.8-0.2-1.4-0.5-2c-0.6-0.8-1.4-1.4-2.4-1.6c-1-0.2-1.9,0-2.6,0.5
		l-0.1,0l-118.8,76.3C209.5,134.9,208.9,135.9,208.9,137.3z M287.7,232.1c0,0.8-0.2,1.6-0.6,2.4l0,0.1c-0.8,1.2-1.9,2-3.3,2.3
		c-1.4,0.3-2.7,0-3.7-0.8L173,168l-63.9,40.5c-1.4,0.9-2.7,1.2-3.9,0.9c-1.2-0.3-2.2-1.1-3.1-2.5c-0.4-0.9-0.6-1.7-0.6-2.5
		c0-1.8,0.7-3.2,2.1-4.3l66.7-42.3c1.6-1.4,3.4-1.4,5.3,0l109.7,69.8C286.9,228.8,287.7,230.2,287.7,232.1z M285.8,233.8
		c0.3-0.6,0.4-1.2,0.4-1.7c0-1.3-0.6-2.3-1.8-3.1l-109.8-69.8c-1.4-1.1-2.5-1.1-3.6-0.1l-66.8,42.3c-1,0.7-1.5,1.7-1.5,3.1
		c0,0.6,0.2,1.2,0.5,1.8c0.6,1,1.4,1.6,2.2,1.8c0.8,0.2,1.8-0.1,2.8-0.8l64.7-40.9l107.8,68.5c0.8,0.6,1.6,0.8,2.6,0.6
		C284.4,235.2,285.2,234.7,285.8,233.8z M275.6,196.9c0,0.8-0.3,1.7-0.9,2.7c-0.8,1.1-1.9,1.8-3.2,2.2c-1.3,0.4-2.7,0.2-3.9-0.6
		l-32.5-20.7c-1.5-1.2-2.2-2.7-2.2-4.3c0-1.2,0.2-2.1,0.6-2.8c0.9-1.4,1.9-2.2,3.1-2.5c1.2-0.3,2.5,0.1,3.9,0.9l32.6,20.7
		C274.8,193.6,275.6,195,275.6,196.9z M234.4,176.1c0,1.2,0.5,2.2,1.6,3.1l32.5,20.7c0.9,0.6,1.8,0.7,2.7,0.4c1-0.3,1.8-0.8,2.4-1.6
		c0.4-0.7,0.6-1.4,0.6-1.9c0-1.3-0.6-2.3-1.8-3.1l-32.6-20.7c-1.1-0.7-2-0.9-2.8-0.8c-0.8,0.2-1.6,0.8-2.2,1.9
		C234.5,174.6,234.4,175.2,234.4,176.1z M275.1,127.8c0,2-0.7,3.5-2.2,4.3l-54.1,34.4c-1.6,1-3.4,1-5.4,0L103.6,96.6
		c-1.4-1-2.2-2.5-2.2-4.3c0-0.6,0.2-1.5,0.6-2.6l0.1-0.2c0.8-1,1.8-1.7,3.1-2.1c1.3-0.4,2.7-0.2,3.9,0.6l107,68.3l51.3-32.6
		c2.8-1.8,5.2-1.3,7,1.5C274.9,126.2,275.1,127,275.1,127.8z M218.1,165.3l54.1-34.4c1-0.6,1.5-1.6,1.5-3.1c0-0.6-0.2-1.2-0.4-1.8
		c-1.3-2.1-2.9-2.4-5-1l-52.1,33.1L108.3,89.3c-0.9-0.6-1.8-0.7-2.7-0.4c-1,0.3-1.7,0.8-2.3,1.5c-0.4,1.1-0.4,1.7-0.4,2
		c0,1.3,0.5,2.4,1.5,3.1l109.7,69.8C215.6,166,216.9,166,218.1,165.3L218.1,165.3z M181.6,186.9c0,1.8-0.8,3.3-2.4,4.3L58.6,267.8
		c-1.2,0.8-2.5,1-3.9,0.6c-1.3-0.4-2.3-1.1-3.1-2.1l-0.1-0.2c-0.4-1.1-0.6-2-0.6-2.6c0-1.8,0.7-3.2,2.1-4.3l120.6-76.6
		c2.8-1.4,5.2-0.9,7,1.5C181.3,184.9,181.6,185.9,181.6,186.9z M52.8,265.5c0.6,0.7,1.4,1.2,2.3,1.5c0.9,0.3,1.8,0.1,2.7-0.4
		L178.4,190c1.2-0.7,1.8-1.7,1.8-3.1c0-0.7-0.2-1.4-0.6-1.9c-1.4-1.8-3-2.2-5.2-1.1L53.8,260.4c-1,0.7-1.5,1.7-1.5,3.1
		C52.3,263.8,52.4,264.4,52.8,265.5z M156.1,148.3c0,1.2-0.2,2.1-0.6,2.8l0,0c-0.8,1-1.8,1.7-3.1,2.1c-1.3,0.4-2.6,0.2-3.9-0.6
		l-32.3-20.7c-1.6-1-2.4-2.4-2.4-4.3c0-1,0.3-1.9,0.9-2.5c0.9-1.3,1.9-2.2,3.1-2.4c1.2-0.3,2.5,0.1,3.9,0.9L154,144
		C155.4,144.8,156.1,146.3,156.1,148.3z M154.3,150.2c0.3-0.4,0.4-1.1,0.4-1.9c0-1.5-0.5-2.5-1.5-3.1l-32.3-20.5
		c-1.1-0.7-2-0.9-2.8-0.8c-0.8,0.2-1.6,0.8-2.2,1.9l-0.1,0.1c-0.4,0.4-0.6,0.9-0.6,1.6c0,1.3,0.6,2.3,1.8,3.1l32.3,20.7
		c0.9,0.6,1.8,0.7,2.7,0.4C152.9,151.5,153.7,151,154.3,150.2z M111.8,119.9l0,0.2c-0.6,2.1-1.5,3.6-2.8,4.4c-1.3,0.8-2.6,1-4,0.6
		l-0.3,0c-1.7-0.4-3.7-1.7-3.7-5.2c0-0.8,0.1-1.4,0.3-1.9c0.4-1.3,1.2-2.3,2.6-3c1.3-0.6,2.7-0.7,4.3-0.3
		C110.5,115.6,111.8,117.4,111.8,119.9z M104.8,123.7l0.4,0c1,0.3,2,0.2,3-0.4c1-0.6,1.7-1.7,2.2-3.4c0-1.9-0.9-3.1-2.7-3.7
		c-1.2-0.3-2.3-0.2-3.3,0.2c-0.9,0.4-1.6,1.2-1.8,2.2c-0.1,0.3-0.2,0.6-0.2,1.4C102.3,122,103.1,123.2,104.8,123.7z"/>
</g>
<g id="XMLID_300_">
	<g id="XMLID_377_">
		<path id="XMLID_381_" class="st2" d="M306.7,127.6h-20.1c-1.2,0-2.3-1.1-2.3-2.6c0-1.3,1-2.5,2.3-2.5h44.8c1.2,0,2.3,1.1,2.3,2.5
			c0,1.4-1,2.6-2.3,2.6h-20.1v64.7c0,1.3-1,2.5-2.3,2.5c-1.2,0-2.3-1.1-2.3-2.5V127.6z"/>
		<path id="XMLID_378_" class="st2" d="M309,195.3c-1.5,0-2.8-1.4-2.8-3v-64.1h-19.6c-1.6,0-2.8-1.4-2.8-3.1c0-1.6,1.3-3,2.8-3h44.8
			c1.5,0,2.8,1.4,2.8,3c0,1.7-1.3,3.1-2.8,3.1h-19.6v64.1C311.8,193.9,310.5,195.3,309,195.3z M286.6,123.1c-1,0-1.8,0.9-1.8,1.9
			c0,1.1,0.8,2.1,1.8,2.1h20.6v65.2c0,1.1,0.8,1.9,1.8,1.9c1,0,1.8-0.9,1.8-1.9v-65.2h20.6c1,0,1.8-0.9,1.8-2.1
			c0-1.1-0.8-1.9-1.8-1.9H286.6z"/>
	</g>
	<g id="XMLID_357_">
		<path id="XMLID_372_" class="st2" d="M334,169.6c0-14,10.1-25.4,22.7-25.4c12,0,21.6,10.3,22.5,23.5v0.1v0.3c0,1.3-1,2.3-2.3,2.3
			h-38.3c0.5,11,8.5,19.4,18.1,19.4c6.2,0,11.9-3.5,15.1-9.2c0.7-1.2,2.1-1.4,3.1-0.8c1,0.8,1.4,2.3,0.8,3.5
			c-4,6.9-11,11.4-18.9,11.4C344.1,194.7,334,183.4,334,169.6z M338.8,165.6h35.4c-1.5-9.5-9-16.4-17.5-16.4
			C347.9,149.2,340.6,156,338.8,165.6z"/>
		<path id="XMLID_358_" class="st2" d="M356.7,195.3c-12.8,0-23.2-11.5-23.2-25.7c0-14.3,10.4-25.9,23.2-25.9c12.1,0,22,10.3,23,24
			l0,0.5c0,1.6-1.2,2.8-2.8,2.8h-37.8c0.7,10.3,8.3,18.3,17.6,18.3c6,0,11.6-3.4,14.6-8.9c0.4-0.7,1-1.2,1.7-1.3
			c0.7-0.2,1.5-0.1,2.1,0.3c1.3,1,1.7,2.8,0.9,4.2C371.8,190.9,364.5,195.3,356.7,195.3z M356.7,144.7c-12.2,0-22.2,11.1-22.2,24.8
			c0,13.6,9.9,24.6,22.2,24.6c7.5,0,14.4-4.2,18.4-11.2c0.5-1,0.3-2.1-0.6-2.8c-0.3-0.2-0.8-0.3-1.2-0.2c-0.3,0.1-0.7,0.3-1,0.8
			c-3.2,5.8-9.2,9.5-15.5,9.5c-10,0-18.2-8.7-18.6-19.9l0-0.5h38.9c1,0,1.8-0.7,1.8-1.7v-0.3C377.7,154.6,368.3,144.7,356.7,144.7z
			 M374.8,166.1h-36.6l0.1-0.6c1.8-9.9,9.3-16.8,18.3-16.8c8.9,0,16.5,7.1,18.1,16.8L374.8,166.1z M339.5,165h34.1
			c-1.7-8.9-8.7-15.3-16.9-15.3C348.4,149.7,341.4,156,339.5,165z"/>
	</g>
	<g id="XMLID_336_">
		<path id="XMLID_353_" class="st2" d="M428.8,164.8c0-8.6-6.4-15.6-14.4-15.6c-7.9,0-14.3,7-14.5,15.6v27.4v0.4
			c-0.1,0.4-0.2,0.8-0.5,1.1c-0.4,0.6-1,0.9-1.7,0.9h-0.6c-0.7-0.2-1.2-0.7-1.5-1.3c-0.1-0.1-0.1-0.2-0.1-0.3c0-0.1-0.1-0.2-0.1-0.2
			v-0.6v-27.4V164v-17.2c0-1.3,1-2.5,2.3-2.5c1.2,0,2.2,1.1,2.2,2.5v4.8c3.4-4.4,8.7-7.3,14.5-7.3c10.5,0,19,9.3,19,20.5v27.4
			c0,1.4-1,2.5-2.3,2.5c-1.2,0-2.3-1-2.3-2.5V164.8z"/>
		<path id="XMLID_338_" class="st2" d="M431.1,195.3c-1.6,0-2.8-1.3-2.8-3v-27.4c0-8.3-6.2-15-13.9-15c-7.5,0-13.8,6.8-14,15.1
			l0,27.9c-0.1,0.4-0.2,1-0.6,1.4c-0.4,0.7-1.2,1.1-2.1,1.1l-0.7,0c-0.8-0.2-1.5-0.8-1.8-1.6c-0.1-0.2-0.2-0.4-0.2-0.5l-0.1-0.1
			l0-0.8v-45.5c0-1.7,1.2-3,2.8-3c1.5,0,2.7,1.3,2.7,3v3.4c3.7-4.1,8.7-6.4,14-6.4c10.8,0,19.5,9.4,19.5,21v27.4
			C433.9,193.9,432.6,195.3,431.1,195.3z M414.4,148.7c8.2,0,14.9,7.2,14.9,16.1v27.4c0,1.1,0.8,1.9,1.8,1.9c1,0,1.8-0.9,1.8-1.9
			v-27.4c0-11-8.3-20-18.5-20c-5.4,0-10.6,2.6-14.1,7.1l-0.9,1.2v-6.4c0-1.1-0.7-2-1.7-2c-1,0-1.8,0.9-1.8,2v45.9
			c0.1,0.1,0.1,0.2,0.1,0.4l0,0.1c0.2,0.5,0.6,0.9,1.1,1h0.5c0.5,0,1-0.3,1.3-0.7c0.2-0.3,0.3-0.6,0.4-0.9v-27.8
			C399.5,156,406.3,148.7,414.4,148.7z"/>
	</g>
	<g id="XMLID_311_">
		<path id="XMLID_321_" class="st2" d="M489.3,184.9c-4.1,6-10.6,9.8-17.9,9.8c-12.6,0-22.6-11.3-22.6-25.2c0-14,10-25.4,22.6-25.4
			c7.3,0,13.8,3.9,17.9,9.9V125c0-1.3,1-2.5,2.4-2.5c1.2,0,2.3,1.1,2.3,2.5v43.5v1v22.7c0,1.3-1,2.5-2.3,2.5c-1.3,0-2.4-1.1-2.4-2.5
			V184.9z M489.3,170.4v-1.6c-0.4-10.8-8.3-19.5-17.9-19.5c-9.8,0-17.9,9.1-17.9,20.3c0,11.1,8.1,20.1,17.9,20.1
			C481,189.7,488.9,181.1,489.3,170.4z"/>
		<path id="XMLID_312_" class="st2" d="M491.7,195.3c-1.6,0-2.9-1.3-2.9-3v-5.7c-4.4,5.6-10.6,8.7-17.4,8.7
			c-12.8,0-23.1-11.5-23.1-25.7c0-14.3,10.4-25.9,23.1-25.9c6.7,0,13,3.2,17.4,8.8V125c0-1.7,1.3-3,2.9-3c1.5,0,2.8,1.4,2.8,3v67.2
			C494.5,193.9,493.2,195.3,491.7,195.3z M489.8,183.2v9c0,1.1,0.8,1.9,1.9,1.9c1,0,1.8-0.9,1.8-1.9V125c0-1.1-0.8-1.9-1.8-1.9
			c-1,0-1.9,0.9-1.9,1.9v30.8l-1-1.4c-4.2-6.1-10.6-9.7-17.5-9.7c-12.2,0-22.1,11.1-22.1,24.8c0,13.6,9.9,24.6,22.1,24.6
			c6.9,0,13.3-3.5,17.5-9.6L489.8,183.2z M471.4,190.2c-10.2,0-18.5-9.3-18.5-20.6c0-11.5,8.3-20.8,18.5-20.8c10,0,18.1,8.8,18.5,20
			v1.7C489.4,181.5,481.3,190.2,471.4,190.2z M471.4,149.8c-9.6,0-17.4,8.9-17.4,19.8c0,10.8,7.8,19.6,17.4,19.6
			c9.4,0,17-8.2,17.4-18.8v-1.6C488.4,158.1,480.8,149.8,471.4,149.8z"/>
	</g>
	<g id="XMLID_301_">
		<path id="XMLID_307_" class="st2" d="M511.6,184.2c0.8-1,2.2-1.2,3.2-0.3c3.2,2.6,8.4,5.9,14.3,5.9c3.6,0,6.8-1.2,8.9-3.1
			c2.3-1.6,3.5-3.9,3.5-6.2c-0.1-2.4-1-4-3.3-6.2c-2-1.6-5.3-2.9-9.9-3.7l-0.2-0.1c-4.2-0.8-7.9-1.9-10.6-3.9
			c-3-1.9-5.1-5.2-5.1-9.1c0-4,2.1-7.5,5.1-9.9c2.8-2.1,6.7-3.4,11.4-3.4c6,0,10.3,3,13.9,5.5c1,0.8,1.3,2.4,0.7,3.5
			c-0.7,1.1-2.1,1.4-3.1,0.7c-3.4-2.5-6.9-5.1-11.4-5.1c-3.8,0-6.9,1.1-8.9,2.9c-1.9,1.7-3,3.7-3,5.8c0,2.1,0.9,3.5,2.7,5.1
			c2.1,1.5,5.2,2.8,9.5,3.5h0.2c4.5,0.7,8.1,2.2,11.3,4.1c3.1,2.2,5.2,6.1,5.2,10.3c0,4.2-2.2,7.6-5.3,10.2c-3.2,2.6-7.1,4-11.6,4
			c-7.5-0.1-13.4-3.9-17.3-7.2C511,186.6,510.9,185.3,511.6,184.2z"/>
		<path id="XMLID_302_" class="st2" d="M529.2,195.3c-6.1-0.1-12.1-2.6-17.6-7.3c-1.1-1.1-1.3-2.8-0.4-4l0,0c0.5-0.6,1.1-1,1.9-1.1
			c0.8-0.1,1.5,0.2,2.1,0.7c4.8,3.8,9.5,5.7,14,5.7c3.3,0,6.4-1.1,8.5-3c2.1-1.5,3.4-3.6,3.4-5.8c-0.1-2.2-0.9-3.8-3.2-5.8
			c-1.9-1.6-5.2-2.8-9.7-3.6l-0.3-0.1c-3.9-0.8-7.9-1.8-10.7-4c-3.3-2.1-5.3-5.6-5.3-9.5c0-3.9,1.9-7.6,5.2-10.3
			c3.1-2.3,7.2-3.5,11.8-3.5c6.1,0,10.5,3,14.1,5.5l0.2,0.1c1.3,1,1.6,2.8,0.8,4.2c-0.4,0.7-1,1.1-1.8,1.3c-0.7,0.2-1.5,0-2.1-0.4
			l-0.3-0.2c-3.2-2.3-6.6-4.7-10.8-4.7c-3.5,0-6.5,1-8.5,2.8c-1.8,1.6-2.8,3.5-2.8,5.4c0,1.8,0.7,3.1,2.5,4.7
			c2.1,1.6,5.3,2.7,9.3,3.4l0.1,0c4.3,0.7,8.1,2.1,11.6,4.2c3.4,2.4,5.5,6.5,5.5,10.8c0,4-1.9,7.6-5.5,10.6
			C537.6,193.9,533.7,195.3,529.2,195.3z M512.1,184.5c-0.6,0.8-0.5,1.9,0.2,2.6c5.3,4.6,11,7,16.9,7.1c4.3,0,8-1.3,11.3-3.9
			c3.4-2.8,5.1-6.1,5.1-9.8c0-3.8-2-7.7-5-9.9c-3.4-2.1-7-3.4-11.1-4l-0.1,0c-4.3-0.7-7.6-1.9-9.8-3.6c-2.1-1.8-2.9-3.3-2.9-5.5
			c0-2.2,1.1-4.4,3.1-6.2c2.2-1.9,5.5-3,9.2-3c4.6,0,8.1,2.5,11.4,4.9l0.3,0.2c0.4,0.3,0.8,0.4,1.3,0.3c0.5-0.1,0.8-0.4,1.1-0.8
			c0.5-0.9,0.3-2.2-0.5-2.8l-0.1-0.1c-3.6-2.5-7.7-5.3-13.5-5.3c-4.4,0-8.2,1.1-11.1,3.3c-3.1,2.5-4.8,5.9-4.8,9.5
			c0,3.5,1.8,6.7,4.8,8.6c2.8,2.1,6.6,3.1,10.4,3.8l0.3,0.1c4.6,0.8,8,2.1,10.1,3.8c2.5,2.2,3.4,4,3.5,6.6c0,2.5-1.4,4.9-3.7,6.6
			c-2.3,2-5.6,3.2-9.2,3.2c-4.7,0-9.6-2-14.6-6c-0.4-0.4-0.9-0.5-1.3-0.5C512.8,183.9,512.3,184.1,512.1,184.5L512.1,184.5z"/>
	</g>
</g>
<g id="XMLID_111_">
	<g id="XMLID_350_">
		<path id="XMLID_421_" class="st3" d="M313.5,205.2c2.1,0,4,0.8,5.5,2c0.3,0.2,0.3,0.7,0.1,0.9c-0.2,0.3-0.6,0.3-0.8,0.1
			c-1.3-1.1-3-1.8-4.8-1.8c-4.3,0-7.7,3.6-7.7,8.1c0,4.4,3.4,8,7.7,8c1.8,0,3.5-0.6,4.7-1.8c0.3-0.2,0.7-0.2,0.9,0.2
			c0.2,0.2,0.2,0.7-0.1,0.9c-1.5,1.2-3.4,2-5.5,2c-4.9,0-8.9-4.2-8.9-9.3C304.6,209.3,308.6,205.2,313.5,205.2z"/>
		<path id="XMLID_419_" class="st3" d="M323.9,211.6c0-0.4,0.3-0.6,0.6-0.6c0.3,0,0.6,0.3,0.6,0.6v2.8c0-0.1,0.1-0.2,0.2-0.3
			c0.9-1.5,2.5-3.2,4.8-3.2c0.3,0,0.6,0.3,0.6,0.6c0,0.3-0.3,0.6-0.6,0.6c-1.6,0-2.6,0.9-3.5,2.1c-0.8,1.2-1.3,2.5-1.4,3
			c0,0.1,0,0.2,0,0.2v5.7c0,0.4-0.3,0.6-0.6,0.6c-0.3,0-0.6-0.3-0.6-0.6V211.6z"/>
		<path id="XMLID_414_" class="st3" d="M332.5,217.5c0-3.6,2.6-6.5,5.8-6.5c3.1,0,5.5,2.6,5.8,6v0v0.1c0,0.3-0.3,0.6-0.6,0.6h-9.8
			c0.1,2.8,2.2,5,4.6,5c1.6,0,3-0.9,3.9-2.3c0.2-0.3,0.5-0.4,0.8-0.2c0.3,0.2,0.4,0.6,0.2,0.9c-1,1.8-2.8,2.9-4.8,2.9
			C335.1,223.9,332.5,221,332.5,217.5z M333.8,216.4h9.1c-0.4-2.4-2.3-4.2-4.5-4.2C336.1,212.2,334.2,214,333.8,216.4z"/>
		<path id="XMLID_409_" class="st3" d="M358.3,211.6v11.7c0,0.3-0.3,0.6-0.6,0.6c-0.3,0-0.6-0.3-0.6-0.6v-1.9
			c-1,1.5-2.7,2.6-4.5,2.6c-3.1,0-5.7-2.9-5.7-6.5c0-3.5,2.5-6.5,5.7-6.5c1.8,0,3.5,1,4.5,2.5v-1.9c0-0.4,0.3-0.6,0.6-0.6
			C358,211,358.3,211.2,358.3,211.6z M357.1,217.4c0-2.9-2-5.2-4.5-5.2c-2.4,0-4.5,2.3-4.5,5.2c0,2.9,2,5.2,4.5,5.2
			C355.1,222.6,357.1,220.3,357.1,217.4z"/>
		<path id="XMLID_407_" class="st3" d="M367.5,211.6c0,0.3-0.3,0.6-0.6,0.6h-1.5v9.4c0,0.6,0.6,0.9,0.9,0.9c0.3,0,0.6,0.3,0.6,0.7
			c0,0.3-0.3,0.6-0.6,0.6c-1.2,0-2.1-0.9-2.1-2.2v-9.4h-1.5c-0.6,0-0.6-0.3-0.6-0.6c0-0.3,0-0.6,0.6-0.6h1.5v-4.8
			c0-0.3,0.3-0.6,0.6-0.6c0.3,0,0.6,0.3,0.6,0.6v4.8h1.5C367.2,211,367.5,211.3,367.5,211.6z"/>
		<path id="XMLID_404_" class="st3" d="M373.1,207.4c0-0.3,0.3-0.6,0.6-0.6c0.3,0,0.6,0.3,0.6,0.6v0.6c0,0.4-0.3,0.7-0.6,0.7
			c-0.3,0-0.6-0.3-0.6-0.7V207.4z M373.1,211.6c0-0.4,0.3-0.6,0.6-0.6c0.3,0,0.6,0.3,0.6,0.6v11.7c0,0.3-0.3,0.6-0.6,0.6
			c-0.3,0-0.6-0.3-0.6-0.6V211.6z"/>
		<path id="XMLID_402_" class="st3" d="M388.5,216.2c0-2.2-1.6-4-3.7-4c-2,0-3.7,1.8-3.7,4v7v0.1c0,0.1,0,0.2-0.1,0.3
			c-0.1,0.2-0.3,0.2-0.4,0.2h-0.1c-0.2-0.1-0.3-0.2-0.4-0.3c0,0,0-0.1,0-0.1c0,0,0-0.1,0-0.1v-0.2v-7V216v-4.4
			c0-0.3,0.2-0.6,0.6-0.6c0.3,0,0.6,0.3,0.6,0.6v1.2c0.9-1.1,2.2-1.9,3.7-1.9c2.7,0,4.9,2.4,4.9,5.2v7c0,0.4-0.3,0.6-0.6,0.6
			c-0.3,0-0.6-0.3-0.6-0.6V216.2z"/>
		<path id="XMLID_399_" class="st3" d="M405.3,222.9c0,3.4-2.5,6.1-5.6,6.1c-0.9,0-1.7-0.2-2.5-0.6c-0.2-0.2-0.4-0.6-0.2-0.8
			c0.1-0.3,0.5-0.5,0.8-0.3c0.6,0.3,1.2,0.5,2,0.5c2.5,0,4.5-2.1,4.5-4.8v-1.6c-1,1.6-2.6,2.5-4.5,2.5c-3.1,0-5.6-2.9-5.6-6.4
			c0-3.5,2.5-6.4,5.6-6.4c1.8,0,3.5,1,4.5,2.5v-1.9c0-0.3,0.3-0.6,0.6-0.6c0.3,0,0.6,0.3,0.6,0.6V222.9z M404.2,217.4
			c0-2.9-2-5.1-4.5-5.1c-2.4,0-4.4,2.3-4.4,5.1c0,2.9,2,5.2,4.4,5.2C402.2,222.6,404.2,220.3,404.2,217.4z"/>
		<path id="XMLID_397_" class="st3" d="M423,206.7h-5.1c-0.3,0-0.6-0.3-0.6-0.7c0-0.3,0.3-0.6,0.6-0.6h11.5c0.3,0,0.6,0.3,0.6,0.6
			c0,0.4-0.3,0.7-0.6,0.7h-5.1v16.5c0,0.3-0.3,0.6-0.6,0.6s-0.6-0.3-0.6-0.6V206.7z"/>
		<path id="XMLID_395_" class="st3" d="M442.4,216.1c0-2.3-1.7-3.8-3.8-3.8c-2.1,0-3.8,1.5-3.8,3.8v7.2v0.1c0,0.1,0,0.1,0,0.1
			c0,0.1,0,0.1,0,0.1c-0.1,0.2-0.2,0.3-0.4,0.3c0,0,0,0,0,0h0h-0.1c-0.2,0-0.3-0.1-0.5-0.2c0-0.1-0.1-0.1-0.1-0.2c0-0.1,0-0.1,0-0.2
			v-7.2v-0.2v-9.8c0-0.3,0.3-0.6,0.6-0.6c0.3,0,0.6,0.3,0.6,0.6v6.8c0.9-1.2,2.3-1.9,3.8-1.9c2.8,0,5,2.1,5,5.1v7.2
			c0,0.3-0.3,0.6-0.6,0.6c-0.3,0-0.6-0.3-0.6-0.6V216.1z"/>
		<path id="XMLID_392_" class="st3" d="M447.7,217.5c0-3.6,2.6-6.5,5.8-6.5c3.1,0,5.5,2.6,5.8,6v0v0.1c0,0.3-0.3,0.6-0.6,0.6h-9.8
			c0.1,2.8,2.2,5,4.6,5c1.6,0,3-0.9,3.9-2.3c0.2-0.3,0.5-0.4,0.8-0.2c0.3,0.2,0.4,0.6,0.2,0.9c-1,1.8-2.8,2.9-4.8,2.9
			C450.3,223.9,447.7,221,447.7,217.5z M449,216.4h9.1c-0.4-2.4-2.3-4.2-4.5-4.2C451.3,212.2,449.4,214,449,216.4z"/>
		<path id="XMLID_374_" class="st3" d="M471,206.1c0-0.3,0.2-0.6,0.6-0.6h0.1h8.7c0.3,0,0.6,0.3,0.6,0.6c0,0.4-0.3,0.7-0.6,0.7h-8.2
			v7.3h7.2c0.3,0,0.6,0.3,0.6,0.7c0,0.3-0.3,0.6-0.6,0.6h-7.2v7.9c0,0.3-0.3,0.6-0.6,0.6c-0.3,0-0.6-0.3-0.6-0.6V206.1z"/>
		<path id="XMLID_370_" class="st3" d="M483.5,211.6c0-0.4,0.3-0.6,0.6-0.6c0.3,0,0.6,0.3,0.6,0.6v7c0,2.2,1.6,4,3.7,4
			c2,0,3.7-1.8,3.7-4v-7c0-0.4,0.3-0.6,0.6-0.6c0.3,0,0.6,0.3,0.6,0.6v7c0,2.9-2.2,5.3-4.9,5.3c-2.7,0-4.8-2.4-4.8-5.3V211.6z"/>
		<path id="XMLID_368_" class="st3" d="M502.8,211.6c0,0.3-0.3,0.6-0.6,0.6h-1.5v9.4c0,0.6,0.6,0.9,0.9,0.9c0.3,0,0.6,0.3,0.6,0.7
			c0,0.3-0.3,0.6-0.6,0.6c-1.2,0-2.1-0.9-2.1-2.2v-9.4H498c-0.6,0-0.6-0.3-0.6-0.6c0-0.3,0-0.6,0.6-0.6h1.5v-4.8
			c0-0.3,0.3-0.6,0.6-0.6c0.3,0,0.6,0.3,0.6,0.6v4.8h1.5C502.5,211,502.8,211.3,502.8,211.6z"/>
		<path id="XMLID_366_" class="st3" d="M508.2,211.6c0-0.4,0.3-0.6,0.6-0.6c0.3,0,0.6,0.3,0.6,0.6v7c0,2.2,1.6,4,3.7,4
			c2,0,3.7-1.8,3.7-4v-7c0-0.4,0.3-0.6,0.6-0.6c0.3,0,0.6,0.3,0.6,0.6v7c0,2.9-2.2,5.3-4.9,5.3c-2.7,0-4.8-2.4-4.8-5.3V211.6z"/>
		<path id="XMLID_361_" class="st3" d="M523.4,211.6c0-0.4,0.3-0.6,0.6-0.6c0.3,0,0.6,0.3,0.6,0.6v2.8c0-0.1,0.1-0.2,0.2-0.3
			c0.9-1.5,2.5-3.2,4.8-3.2c0.3,0,0.6,0.3,0.6,0.6c0,0.3-0.3,0.6-0.6,0.6c-1.6,0-2.6,0.9-3.5,2.1c-0.8,1.2-1.3,2.5-1.4,3
			c0,0.1,0,0.2,0,0.2v5.7c0,0.4-0.3,0.6-0.6,0.6c-0.3,0-0.6-0.3-0.6-0.6V211.6z"/>
		<path id="XMLID_354_" class="st3" d="M532,217.5c0-3.6,2.6-6.5,5.8-6.5c3.1,0,5.5,2.6,5.8,6v0v0.1c0,0.3-0.3,0.6-0.6,0.6h-9.8
			c0.1,2.8,2.2,5,4.6,5c1.6,0,3-0.9,3.9-2.3c0.2-0.3,0.5-0.4,0.8-0.2c0.3,0.2,0.4,0.6,0.2,0.9c-1,1.8-2.8,2.9-4.8,2.9
			C534.6,223.9,532,221,532,217.5z M533.3,216.4h9.1c-0.4-2.4-2.3-4.2-4.5-4.2C535.6,212.2,533.7,214,533.3,216.4z"/>
	</g>
</g>
</svg>
